<svg xmlns="http://www.w3.org/2000/svg" version="1.1" xmlns:xlink="http://www.w3.org/1999/xlink" xmlns:svgjs="http://svgjs.dev/svgjs" viewBox="0 0 800 800"><defs><linearGradient x1="50%" y1="0%" x2="50%" y2="100%" id="ffflurry-grad" gradientTransform="rotate(270)"><stop stop-color="hsl(0, 0%, 0%)" stop-opacity="1" offset="0%"></stop><stop stop-color="hsl(130, 73%, 48%)" stop-opacity="1" offset="45%"></stop><stop stop-color="hsl(167, 52%, 78%)" stop-opacity="1" offset="100%"></stop></linearGradient></defs><rect width="100%" height="100%" fill="hsl(0, 0%, 0%)"></rect><g fill="url(#ffflurry-grad)"><rect width="61" height="3" x="619.5" y="673.5" rx="1.5" transform="rotate(45, 650, 675)" opacity="0.47"></rect><rect width="433" height="3" x="550.5" y="472.5" rx="1.5" transform="rotate(45, 767, 474)" opacity="0.85"></rect><rect width="463" height="3" x="155.5" y="420.5" rx="1.5" transform="rotate(45, 387, 422)" opacity="0.58"></rect><rect width="113" height="3" x="638.5" y="482.5" rx="1.5" transform="rotate(45, 695, 484)" opacity="0.88"></rect><rect width="528" height="3" x="-206" y="427.5" rx="1.5" transform="rotate(45, 58, 429)" opacity="0.38"></rect><rect width="339" height="3" x="282.5" y="736.5" rx="1.5" transform="rotate(45, 452, 738)" opacity="0.90"></rect><rect width="389" height="3" x="422.5" y="760.5" rx="1.5" transform="rotate(45, 617, 762)" opacity="0.69"></rect><rect width="179" height="3" x="-55.5" y="498.5" rx="1.5" transform="rotate(45, 34, 500)" opacity="0.37"></rect><rect width="453" height="3" x="24.5" y="306.5" rx="1.5" transform="rotate(45, 251, 308)" opacity="0.24"></rect><rect width="176" height="3" x="172" y="224.5" rx="1.5" transform="rotate(45, 260, 226)" opacity="0.94"></rect><rect width="141" height="3" x="609.5" y="582.5" rx="1.5" transform="rotate(45, 680, 584)" opacity="0.38"></rect><rect width="549" height="3" x="-95.5" y="191.5" rx="1.5" transform="rotate(45, 179, 193)" opacity="0.20"></rect><rect width="51" height="3" x="414.5" y="519.5" rx="1.5" transform="rotate(45, 440, 521)" opacity="0.76"></rect><rect width="347" height="3" x="562.5" y="194.5" rx="1.5" transform="rotate(45, 736, 196)" opacity="0.81"></rect><rect width="176" height="3" x="174" y="587.5" rx="1.5" transform="rotate(45, 262, 589)" opacity="0.70"></rect><rect width="55" height="3" x="523.5" y="380.5" rx="1.5" transform="rotate(45, 551, 382)" opacity="0.38"></rect><rect width="417" height="3" x="6.5" y="372.5" rx="1.5" transform="rotate(45, 215, 374)" opacity="0.16"></rect><rect width="268" height="3" x="-71" y="774.5" rx="1.5" transform="rotate(45, 63, 776)" opacity="0.76"></rect><rect width="318" height="3" x="-93" y="180.5" rx="1.5" transform="rotate(45, 66, 182)" opacity="0.98"></rect><rect width="523" height="3" x="82.5" y="640.5" rx="1.5" transform="rotate(45, 344, 642)" opacity="0.24"></rect><rect width="247" height="3" x="82.5" y="527.5" rx="1.5" transform="rotate(45, 206, 529)" opacity="0.95"></rect><rect width="243" height="3" x="165.5" y="132.5" rx="1.5" transform="rotate(45, 287, 134)" opacity="0.62"></rect><rect width="361" height="3" x="159.5" y="38.5" rx="1.5" transform="rotate(45, 340, 40)" opacity="0.08"></rect><rect width="135" height="3" x="588.5" y="43.5" rx="1.5" transform="rotate(45, 656, 45)" opacity="0.55"></rect><rect width="345" height="3" x="-33.5" y="393.5" rx="1.5" transform="rotate(45, 139, 395)" opacity="0.17"></rect><rect width="309" height="3" x="303.5" y="272.5" rx="1.5" transform="rotate(45, 458, 274)" opacity="0.97"></rect><rect width="256" height="3" x="43" y="461.5" rx="1.5" transform="rotate(45, 171, 463)" opacity="0.41"></rect><rect width="513" height="3" x="496.5" y="649.5" rx="1.5" transform="rotate(45, 753, 651)" opacity="0.48"></rect><rect width="518" height="3" x="153" y="167.5" rx="1.5" transform="rotate(45, 412, 169)" opacity="0.56"></rect><rect width="322" height="3" x="-80" y="606.5" rx="1.5" transform="rotate(45, 81, 608)" opacity="0.42"></rect><rect width="396" height="3" x="342" y="680.5" rx="1.5" transform="rotate(45, 540, 682)" opacity="0.23"></rect><rect width="176" height="3" x="405" y="454.5" rx="1.5" transform="rotate(45, 493, 456)" opacity="0.74"></rect><rect width="139" height="3" x="321.5" y="322.5" rx="1.5" transform="rotate(45, 391, 324)" opacity="0.08"></rect><rect width="608" height="3" x="334" y="221.5" rx="1.5" transform="rotate(45, 638, 223)" opacity="0.23"></rect><rect width="281" height="3" x="-40.5" y="334.5" rx="1.5" transform="rotate(45, 100, 336)" opacity="0.97"></rect><rect width="531" height="3" x="54.5" y="339.5" rx="1.5" transform="rotate(45, 320, 341)" opacity="0.46"></rect><rect width="358" height="3" x="154" y="512.5" rx="1.5" transform="rotate(45, 333, 514)" opacity="0.69"></rect><rect width="40" height="3" x="86" y="678.5" rx="1.5" transform="rotate(45, 106, 680)" opacity="0.41"></rect><rect width="184" height="3" x="345" y="608.5" rx="1.5" transform="rotate(45, 437, 610)" opacity="0.17"></rect><rect width="547" height="3" x="190.5" y="360.5" rx="1.5" transform="rotate(45, 464, 362)" opacity="0.36"></rect><rect width="462" height="3" x="-84" y="39.5" rx="1.5" transform="rotate(45, 147, 41)" opacity="0.86"></rect><rect width="33" height="3" x="463.5" y="188.5" rx="1.5" transform="rotate(45, 480, 190)" opacity="0.24"></rect><rect width="179" height="3" x="-61.5" y="673.5" rx="1.5" transform="rotate(45, 28, 675)" opacity="0.34"></rect><rect width="448" height="3" x="350" y="296.5" rx="1.5" transform="rotate(45, 574, 298)" opacity="0.46"></rect><rect width="239" height="3" x="492.5" y="134.5" rx="1.5" transform="rotate(45, 612, 136)" opacity="0.40"></rect><rect width="66" height="3" x="565" y="589.5" rx="1.5" transform="rotate(45, 598, 591)" opacity="0.92"></rect><rect width="448" height="3" x="534" y="290.5" rx="1.5" transform="rotate(45, 758, 292)" opacity="0.68"></rect><rect width="474" height="3" x="-206" y="340.5" rx="1.5" transform="rotate(45, 31, 342)" opacity="0.90"></rect><rect width="75" height="3" x="-13.5" y="596.5" rx="1.5" transform="rotate(45, 24, 598)" opacity="0.92"></rect><rect width="630" height="3" x="-32" y="427.5" rx="1.5" transform="rotate(45, 283, 429)" opacity="0.29"></rect><rect width="301" height="3" x="401.5" y="42.5" rx="1.5" transform="rotate(45, 552, 44)" opacity="0.42"></rect><rect width="385" height="3" x="-15.5" y="753.5" rx="1.5" transform="rotate(45, 177, 755)" opacity="0.29"></rect><rect width="279" height="3" x="-86.5" y="727.5" rx="1.5" transform="rotate(45, 53, 729)" opacity="0.63"></rect><rect width="333" height="3" x="-135.5" y="117.5" rx="1.5" transform="rotate(45, 31, 119)" opacity="0.86"></rect><rect width="242" height="3" x="120" y="55.5" rx="1.5" transform="rotate(45, 241, 57)" opacity="0.85"></rect><rect width="173" height="3" x="-32.5" y="250.5" rx="1.5" transform="rotate(45, 54, 252)" opacity="0.76"></rect><rect width="93" height="3" x="81.5" y="116.5" rx="1.5" transform="rotate(45, 128, 118)" opacity="0.70"></rect><rect width="582" height="3" x="460" y="386.5" rx="1.5" transform="rotate(45, 751, 388)" opacity="0.77"></rect><rect width="310" height="3" x="589" y="746.5" rx="1.5" transform="rotate(45, 744, 748)" opacity="0.57"></rect><rect width="255" height="3" x="511.5" y="414.5" rx="1.5" transform="rotate(45, 639, 416)" opacity="0.84"></rect><rect width="247" height="3" x="418.5" y="213.5" rx="1.5" transform="rotate(45, 542, 215)" opacity="0.79"></rect><rect width="116" height="3" x="98" y="613.5" rx="1.5" transform="rotate(45, 156, 615)" opacity="0.51"></rect><rect width="102" height="3" x="108" y="284.5" rx="1.5" transform="rotate(45, 159, 286)" opacity="0.18"></rect><rect width="279" height="3" x="530.5" y="325.5" rx="1.5" transform="rotate(45, 670, 327)" opacity="0.82"></rect><rect width="401" height="3" x="401.5" y="487.5" rx="1.5" transform="rotate(45, 602, 489)" opacity="0.96"></rect><rect width="378" height="3" x="145" y="762.5" rx="1.5" transform="rotate(45, 334, 764)" opacity="0.82"></rect><rect width="472" height="3" x="45" y="712.5" rx="1.5" transform="rotate(45, 281, 714)" opacity="0.99"></rect><rect width="543" height="3" x="266.5" y="544.5" rx="1.5" transform="rotate(45, 538, 546)" opacity="0.48"></rect><rect width="451" height="3" x="188.5" y="62.5" rx="1.5" transform="rotate(45, 414, 64)" opacity="0.20"></rect><rect width="529" height="3" x="-51.5" y="669.5" rx="1.5" transform="rotate(45, 213, 671)" opacity="0.66"></rect><rect width="104" height="3" x="295" y="191.5" rx="1.5" transform="rotate(45, 347, 193)" opacity="0.27"></rect><rect width="580" height="3" x="459" y="74.5" rx="1.5" transform="rotate(45, 749, 76)" opacity="0.93"></rect><rect width="228" height="3" x="378" y="91.5" rx="1.5" transform="rotate(45, 492, 93)" opacity="0.86"></rect><rect width="432" height="3" x="-170" y="37.5" rx="1.5" transform="rotate(45, 46, 39)" opacity="0.32"></rect><rect width="501" height="3" x="509.5" y="559.5" rx="1.5" transform="rotate(45, 760, 561)" opacity="0.98"></rect><rect width="93" height="3" x="299.5" y="261.5" rx="1.5" transform="rotate(45, 346, 263)" opacity="0.99"></rect><rect width="466" height="3" x="-135" y="535.5" rx="1.5" transform="rotate(45, 98, 537)" opacity="0.44"></rect></g></svg>